<?xml version="1.0" encoding="UTF-8"?>
<svg width="30px" height="30px" viewBox="0 0 30 30" version="1.1" xmlns="http://www.w3.org/2000/svg" xmlns:xlink="http://www.w3.org/1999/xlink">
    <!-- Generator: Sketch 64 (93537) - https://sketch.com -->
    <title>UI/Icons/social-icon</title>
    <desc>Created with Sketch.</desc>
    <g id="Icons-&amp;-components" stroke="none" stroke-width="1" fill="none" fill-rule="evenodd">
        <g id="components/footer" transform="translate(-454.000000, -71.000000)">
            <g id="Group-7">
                <g id="Group-8" transform="translate(394.000000, 71.000000)">
                    <g id="Group">
                        <g id="Icons/social-icon-blog" transform="translate(60.000000, 0.000000)">
                            <circle id="Oval" fill="#050609" cx="15" cy="15" r="15"></circle>
                            <g id="Icons/social/facebook-logo" transform="translate(7.000000, 7.000000)" fill="#F0F6F6">
                                <path d="M14.125,0 L1.875,0 C0.841125,0 0,0.841125 0,1.875 L0,14.125 C0,15.158875 0.841125,16 1.875,16 L14.125,16 C15.158875,16 16,15.158875 16,14.125 L16,1.875 C16,0.841125 15.158875,0 14.125,0 Z M14.75,14.125 C14.75,14.469625 14.469625,14.75 14.125,14.75 L10.5625,14.75 L10.5625,9.65625 L12.4934375,9.65625 L12.8125,7.71875 L10.5625,7.71875 L10.5625,6.375 C10.5625,5.84453125 10.9695312,5.4375 11.5,5.4375 L12.78125,5.4375 L12.78125,3.5 L11.5,3.5 C9.90865625,3.5 8.6256875,4.7890625 8.6256875,6.3804375 L8.6256875,7.71875 L6.75,7.71875 L6.75,9.65625 L8.6256875,9.65625 L8.6256875,14.75 L1.875,14.75 C1.530375,14.75 1.25,14.469625 1.25,14.125 L1.25,1.875 C1.25,1.530375 1.530375,1.25 1.875,1.25 L14.125,1.25 C14.469625,1.25 14.75,1.530375 14.75,1.875 L14.75,14.125 Z" id="Shape"></path>
                            </g>
                        </g>
                    </g>
                </g>
            </g>
        </g>
    </g>
</svg>