<?xml version="1.0" encoding="UTF-8"?>
<svg width="30px" height="30px" viewBox="0 0 30 30" version="1.1" xmlns="http://www.w3.org/2000/svg" xmlns:xlink="http://www.w3.org/1999/xlink">
    <!-- Generator: Sketch 64 (93537) - https://sketch.com -->
    <title>linkedinUI/Icons/social-icon</title>
    <desc>Created with Sketch.</desc>
    <g id="Icons-&amp;-components" stroke="none" stroke-width="1" fill="none" fill-rule="evenodd">
        <g id="components/footer" transform="translate(-514.000000, -71.000000)">
            <g id="Group-7">
                <g id="Group-8" transform="translate(394.000000, 71.000000)">
                    <g id="Group">
                        <g id="Icons/social-icon-blog" transform="translate(120.000000, 0.000000)">
                            <circle id="Oval" fill="#050609" cx="15" cy="15" r="15"></circle>
                            <g id="Icons/social/linkin-logo" transform="translate(7.000000, 7.000000)" fill="#F0F6F6">
                                <path d="M3.73286957,2.61549855 C3.73286957,3.57271595 3.01286957,4.34002077 1.85530435,4.34002077 L1.83373913,4.34002077 C0.719304348,4.34071595 0,3.57202029 0,2.61549855 C0,1.63532464 0.74226087,0.888889374 1.87686957,0.888889374 C3.01286957,0.888194207 3.712,1.63532464 3.73286957,2.61549855 Z M0.194782609,15.6888899 L3.51443478,15.6888899 L3.51443478,5.70419421 L0.194782609,5.70419421 L0.194782609,15.6888899 Z M11.661913,5.47045508 C9.90121739,5.47045508 9.11304348,6.4374116 8.66991304,7.11915073 L8.66991304,7.15115073 L8.64834783,7.15115073 C8.65669565,7.1414116 8.66434783,7.13028116 8.66991304,7.11915073 L8.66991304,5.70488986 L5.35095652,5.70488986 C5.39408696,6.64054203 5.35095652,15.6895855 5.35095652,15.6895855 L8.66991304,15.6895855 L8.66991304,10.1132377 C8.66991304,9.81271595 8.69008696,9.51845508 8.77913043,9.30349855 C9.01982609,8.7094116 9.5666087,8.08819421 10.4806957,8.08819421 C11.6834783,8.08819421 12.1641739,9.00575942 12.1641739,10.3469768 L12.1641739,15.6895855 L15.4831307,15.6895855 L15.4831307,9.96506377 C15.4838261,6.89584638 13.8448696,5.47045508 11.661913,5.47045508 Z" id="Shape"></path>
                            </g>
                        </g>
                    </g>
                </g>
            </g>
        </g>
    </g>
</svg>