<?xml version="1.0" encoding="UTF-8"?>
<svg width="30px" height="30px" viewBox="0 0 30 30" version="1.1" xmlns="http://www.w3.org/2000/svg" xmlns:xlink="http://www.w3.org/1999/xlink">
    <!-- Generator: Sketch 64 (93537) - https://sketch.com -->
    <title>UI/Icons/social-icon</title>
    <desc>Created with Sketch.</desc>
    <g id="Icons-&amp;-components" stroke="none" stroke-width="1" fill="none" fill-rule="evenodd">
        <g id="components/footer" transform="translate(-394.000000, -71.000000)">
            <g id="Group-7">
                <g id="Group-8" transform="translate(394.000000, 71.000000)">
                    <g id="Group">
                        <g id="Icons/social-icon-blog">
                            <circle id="Oval" fill="#050609" cx="15" cy="15" r="15"></circle>
                            <g id="Icons/social/twitter-logo" transform="translate(7.000000, 7.000000)" fill="#F0F6F6">
                                <path d="M16,3.35623932 C15.405,3.62393162 14.771,3.80136752 14.11,3.88752137 C14.79,3.47111111 15.309,2.81675214 15.553,2.02803419 C14.919,2.4157265 14.219,2.68957265 13.473,2.84239316 C12.871,2.18495726 12.013,1.77777778 11.077,1.77777778 C9.261,1.77777778 7.799,3.28957265 7.799,5.14290598 C7.799,5.40957265 7.821,5.66598291 7.875,5.91008547 C5.148,5.77367521 2.735,4.43316239 1.114,2.39111111 C0.831,2.89470085 0.665,3.47111111 0.665,4.09162393 C0.665,5.25675214 1.25,6.28957265 2.122,6.88752137 C1.595,6.87726496 1.078,6.72034188 0.64,6.47316239 C0.64,6.4834188 0.64,6.49675214 0.64,6.51008547 C0.64,8.14495726 1.777,9.50290598 3.268,9.8157265 C3.001,9.89059829 2.71,9.92649573 2.408,9.92649573 C2.198,9.92649573 1.986,9.91418803 1.787,9.86905983 C2.212,11.2013675 3.418,12.1808547 4.852,12.2126496 C3.736,13.1080342 2.319,13.6475214 0.785,13.6475214 C0.516,13.6475214 0.258,13.6352137 0,13.6013675 C1.453,14.5623932 3.175,15.1111111 5.032,15.1111111 C11.068,15.1111111 14.368,9.98290598 14.368,5.53777778 C14.368,5.38905983 14.363,5.24547009 14.356,5.10290598 C15.007,4.62905983 15.554,4.03726496 16,3.35623932 Z" id="Social-Logo"></path>
                            </g>
                        </g>
                    </g>
                </g>
            </g>
        </g>
    </g>
</svg>