<?xml version="1.0" encoding="UTF-8"?>
<svg width="92px" height="237px" viewBox="0 0 92 237" version="1.1" xmlns="http://www.w3.org/2000/svg" xmlns:xlink="http://www.w3.org/1999/xlink">
    <title>dot-rectangle</title>
    <g id="Welcome" stroke="none" stroke-width="1" fill="none" fill-rule="evenodd" fill-opacity="0.75">
        <g id="Resources:-Blog-Post---Page" transform="translate(-620.000000, -226.000000)" fill="#FFFFFF" fill-rule="nonzero">
            <g id="dot-rectangle" transform="translate(666.000000, 344.500000) rotate(-270.000000) translate(-666.000000, -344.500000) translate(548.000000, 299.000000)">
                <circle id="Oval" cx="234" cy="89" r="1.5"></circle>
                <circle id="Oval" cx="227" cy="89" r="1.5"></circle>
                <circle id="Oval" cx="219" cy="89" r="1.5"></circle>
                <circle id="Oval" cx="212" cy="89" r="1.5"></circle>
                <circle id="Oval" cx="204" cy="89" r="1.5"></circle>
                <circle id="Oval" cx="197" cy="89" r="1.5"></circle>
                <circle id="Oval" cx="189" cy="89" r="1.5"></circle>
                <circle id="Oval" cx="182" cy="89" r="1.5"></circle>
                <circle id="Oval" cx="174" cy="89" r="1.5"></circle>
                <circle id="Oval" cx="167" cy="89" r="1.5"></circle>
                <circle id="Oval" cx="159" cy="89" r="1.5"></circle>
                <circle id="Oval" cx="152" cy="89" r="1.5"></circle>
                <circle id="Oval" cx="144" cy="89" r="1.5"></circle>
                <circle id="Oval" cx="137" cy="89" r="1.5"></circle>
                <circle id="Oval" cx="129" cy="89" r="1.5"></circle>
                <circle id="Oval" cx="121" cy="89" r="1.5"></circle>
                <circle id="Oval" cx="114" cy="89" r="1.5"></circle>
                <circle id="Oval" cx="106" cy="89" r="1.5"></circle>
                <circle id="Oval" cx="99" cy="89" r="1.5"></circle>
                <circle id="Oval" cx="92" cy="89" r="1.5"></circle>
                <circle id="Oval" cx="84" cy="89" r="1.5"></circle>
                <circle id="Oval" cx="77" cy="89" r="1.5"></circle>
                <circle id="Oval" cx="69" cy="89" r="1.5"></circle>
                <circle id="Oval" cx="62" cy="89" r="1.5"></circle>
                <circle id="Oval" cx="54" cy="89" r="1.5"></circle>
                <circle id="Oval" cx="47" cy="89" r="1.5"></circle>
                <circle id="Oval" cx="39" cy="89" r="1.5"></circle>
                <circle id="Oval" cx="32" cy="89" r="1.5"></circle>
                <circle id="Oval" cx="24" cy="89" r="1.5"></circle>
                <circle id="Oval" cx="17" cy="89" r="1.5"></circle>
                <circle id="Oval" cx="9" cy="89" r="1.5"></circle>
                <circle id="Oval" cx="2" cy="89" r="1.5"></circle>
                <circle id="Oval" cx="234" cy="83" r="1.5"></circle>
                <circle id="Oval" cx="227" cy="83" r="1.5"></circle>
                <circle id="Oval" cx="219" cy="83" r="1.5"></circle>
                <circle id="Oval" cx="212" cy="83" r="1.5"></circle>
                <circle id="Oval" cx="204" cy="83" r="1.5"></circle>
                <circle id="Oval" cx="197" cy="83" r="1.5"></circle>
                <circle id="Oval" cx="189" cy="83" r="1.5"></circle>
                <circle id="Oval" cx="182" cy="83" r="1.5"></circle>
                <circle id="Oval" cx="174" cy="83" r="1.5"></circle>
                <circle id="Oval" cx="167" cy="83" r="1.5"></circle>
                <circle id="Oval" cx="159" cy="83" r="1.5"></circle>
                <circle id="Oval" cx="152" cy="83" r="1.5"></circle>
                <circle id="Oval" cx="144" cy="83" r="1.5"></circle>
                <circle id="Oval" cx="137" cy="83" r="1.5"></circle>
                <circle id="Oval" cx="129" cy="83" r="1.5"></circle>
                <circle id="Oval" cx="121" cy="83" r="1.5"></circle>
                <circle id="Oval" cx="114" cy="83" r="1.5"></circle>
                <circle id="Oval" cx="106" cy="83" r="1.5"></circle>
                <circle id="Oval" cx="99" cy="83" r="1.5"></circle>
                <circle id="Oval" cx="92" cy="83" r="1.5"></circle>
                <circle id="Oval" cx="84" cy="83" r="1.5"></circle>
                <circle id="Oval" cx="77" cy="83" r="1.5"></circle>
                <circle id="Oval" cx="69" cy="83" r="1.5"></circle>
                <circle id="Oval" cx="62" cy="83" r="1.5"></circle>
                <circle id="Oval" cx="54" cy="83" r="1.5"></circle>
                <circle id="Oval" cx="47" cy="83" r="1.5"></circle>
                <circle id="Oval" cx="39" cy="83" r="1.5"></circle>
                <circle id="Oval" cx="32" cy="83" r="1.5"></circle>
                <circle id="Oval" cx="24" cy="83" r="1.5"></circle>
                <circle id="Oval" cx="17" cy="83" r="1.5"></circle>
                <circle id="Oval" cx="9" cy="83" r="1.5"></circle>
                <circle id="Oval" cx="2" cy="83" r="1.5"></circle>
                <circle id="Oval" cx="234" cy="78" r="1.5"></circle>
                <circle id="Oval" cx="227" cy="78" r="1.5"></circle>
                <circle id="Oval" cx="219" cy="78" r="1.5"></circle>
                <circle id="Oval" cx="212" cy="78" r="1.5"></circle>
                <circle id="Oval" cx="204" cy="78" r="1.5"></circle>
                <circle id="Oval" cx="197" cy="78" r="1.5"></circle>
                <circle id="Oval" cx="189" cy="78" r="1.5"></circle>
                <circle id="Oval" cx="182" cy="78" r="1.5"></circle>
                <circle id="Oval" cx="174" cy="78" r="1.5"></circle>
                <circle id="Oval" cx="167" cy="78" r="1.5"></circle>
                <circle id="Oval" cx="159" cy="78" r="1.5"></circle>
                <circle id="Oval" cx="152" cy="78" r="1.5"></circle>
                <circle id="Oval" cx="144" cy="78" r="1.5"></circle>
                <circle id="Oval" cx="137" cy="78" r="1.5"></circle>
                <circle id="Oval" cx="129" cy="78" r="1.5"></circle>
                <circle id="Oval" cx="121" cy="78" r="1.5"></circle>
                <circle id="Oval" cx="114" cy="78" r="1.5"></circle>
                <circle id="Oval" cx="106" cy="78" r="1.5"></circle>
                <circle id="Oval" cx="99" cy="78" r="1.5"></circle>
                <circle id="Oval" cx="92" cy="78" r="1.5"></circle>
                <circle id="Oval" cx="84" cy="78" r="1.5"></circle>
                <circle id="Oval" cx="77" cy="78" r="1.5"></circle>
                <circle id="Oval" cx="69" cy="78" r="1.5"></circle>
                <circle id="Oval" cx="62" cy="78" r="1.5"></circle>
                <circle id="Oval" cx="54" cy="78" r="1.5"></circle>
                <circle id="Oval" cx="47" cy="78" r="1.5"></circle>
                <circle id="Oval" cx="39" cy="78" r="1.5"></circle>
                <circle id="Oval" cx="32" cy="78" r="1.5"></circle>
                <circle id="Oval" cx="24" cy="78" r="1.5"></circle>
                <circle id="Oval" cx="17" cy="78" r="1.5"></circle>
                <circle id="Oval" cx="9" cy="78" r="1.5"></circle>
                <circle id="Oval" cx="2" cy="78" r="1.5"></circle>
                <circle id="Oval" cx="234" cy="73" r="1.5"></circle>
                <circle id="Oval" cx="227" cy="73" r="1.5"></circle>
                <circle id="Oval" cx="219" cy="73" r="1.5"></circle>
                <circle id="Oval" cx="212" cy="73" r="1.5"></circle>
                <circle id="Oval" cx="204" cy="73" r="1.5"></circle>
                <circle id="Oval" cx="197" cy="73" r="1.5"></circle>
                <circle id="Oval" cx="189" cy="73" r="1.5"></circle>
                <circle id="Oval" cx="182" cy="73" r="1.5"></circle>
                <circle id="Oval" cx="174" cy="73" r="1.5"></circle>
                <circle id="Oval" cx="167" cy="73" r="1.5"></circle>
                <circle id="Oval" cx="159" cy="73" r="1.5"></circle>
                <circle id="Oval" cx="152" cy="73" r="1.5"></circle>
                <circle id="Oval" cx="144" cy="73" r="1.5"></circle>
                <circle id="Oval" cx="137" cy="73" r="1.5"></circle>
                <circle id="Oval" cx="129" cy="73" r="1.5"></circle>
                <circle id="Oval" cx="121" cy="73" r="1.5"></circle>
                <circle id="Oval" cx="114" cy="73" r="1.5"></circle>
                <circle id="Oval" cx="106" cy="73" r="1.5"></circle>
                <circle id="Oval" cx="99" cy="73" r="1.5"></circle>
                <circle id="Oval" cx="92" cy="73" r="1.5"></circle>
                <circle id="Oval" cx="84" cy="73" r="1.5"></circle>
                <circle id="Oval" cx="77" cy="73" r="1.5"></circle>
                <circle id="Oval" cx="69" cy="73" r="1.5"></circle>
                <circle id="Oval" cx="62" cy="73" r="1.5"></circle>
                <circle id="Oval" cx="54" cy="73" r="1.5"></circle>
                <circle id="Oval" cx="47" cy="73" r="1.5"></circle>
                <circle id="Oval" cx="39" cy="73" r="1.5"></circle>
                <circle id="Oval" cx="32" cy="73" r="1.5"></circle>
                <circle id="Oval" cx="24" cy="73" r="1.5"></circle>
                <circle id="Oval" cx="17" cy="73" r="1.5"></circle>
                <circle id="Oval" cx="9" cy="73" r="1.5"></circle>
                <circle id="Oval" cx="2" cy="73" r="1.5"></circle>
                <circle id="Oval" cx="234" cy="67" r="1.5"></circle>
                <circle id="Oval" cx="227" cy="67" r="1.5"></circle>
                <circle id="Oval" cx="219" cy="67" r="1.5"></circle>
                <circle id="Oval" cx="212" cy="67" r="1.5"></circle>
                <circle id="Oval" cx="204" cy="67" r="1.5"></circle>
                <circle id="Oval" cx="197" cy="67" r="1.5"></circle>
                <circle id="Oval" cx="189" cy="67" r="1.5"></circle>
                <circle id="Oval" cx="182" cy="67" r="1.5"></circle>
                <circle id="Oval" cx="174" cy="67" r="1.5"></circle>
                <circle id="Oval" cx="167" cy="67" r="1.5"></circle>
                <circle id="Oval" cx="159" cy="67" r="1.5"></circle>
                <circle id="Oval" cx="152" cy="67" r="1.5"></circle>
                <circle id="Oval" cx="144" cy="67" r="1.5"></circle>
                <circle id="Oval" cx="137" cy="67" r="1.5"></circle>
                <circle id="Oval" cx="129" cy="67" r="1.5"></circle>
                <circle id="Oval" cx="121" cy="67" r="1.5"></circle>
                <circle id="Oval" cx="114" cy="67" r="1.5"></circle>
                <circle id="Oval" cx="106" cy="67" r="1.5"></circle>
                <circle id="Oval" cx="99" cy="67" r="1.5"></circle>
                <circle id="Oval" cx="92" cy="67" r="1.5"></circle>
                <circle id="Oval" cx="84" cy="67" r="1.5"></circle>
                <circle id="Oval" cx="77" cy="67" r="1.5"></circle>
                <circle id="Oval" cx="69" cy="67" r="1.5"></circle>
                <circle id="Oval" cx="62" cy="67" r="1.5"></circle>
                <circle id="Oval" cx="54" cy="67" r="1.5"></circle>
                <circle id="Oval" cx="47" cy="67" r="1.5"></circle>
                <circle id="Oval" cx="39" cy="67" r="1.5"></circle>
                <circle id="Oval" cx="32" cy="67" r="1.5"></circle>
                <circle id="Oval" cx="24" cy="67" r="1.5"></circle>
                <circle id="Oval" cx="17" cy="67" r="1.5"></circle>
                <circle id="Oval" cx="9" cy="67" r="1.5"></circle>
                <circle id="Oval" cx="2" cy="67" r="1.5"></circle>
                <circle id="Oval" cx="234" cy="62" r="1.5"></circle>
                <circle id="Oval" cx="227" cy="62" r="1.5"></circle>
                <circle id="Oval" cx="219" cy="62" r="1.5"></circle>
                <circle id="Oval" cx="212" cy="62" r="1.5"></circle>
                <circle id="Oval" cx="204" cy="62" r="1.5"></circle>
                <circle id="Oval" cx="197" cy="62" r="1.5"></circle>
                <circle id="Oval" cx="189" cy="62" r="1.5"></circle>
                <circle id="Oval" cx="182" cy="62" r="1.5"></circle>
                <circle id="Oval" cx="174" cy="62" r="1.5"></circle>
                <circle id="Oval" cx="167" cy="62" r="1.5"></circle>
                <circle id="Oval" cx="159" cy="62" r="1.5"></circle>
                <circle id="Oval" cx="152" cy="62" r="1.5"></circle>
                <circle id="Oval" cx="144" cy="62" r="1.5"></circle>
                <circle id="Oval" cx="137" cy="62" r="1.5"></circle>
                <circle id="Oval" cx="129" cy="62" r="1.5"></circle>
                <circle id="Oval" cx="121" cy="62" r="1.5"></circle>
                <circle id="Oval" cx="114" cy="62" r="1.5"></circle>
                <circle id="Oval" cx="106" cy="62" r="1.5"></circle>
                <circle id="Oval" cx="99" cy="62" r="1.5"></circle>
                <circle id="Oval" cx="92" cy="62" r="1.5"></circle>
                <circle id="Oval" cx="84" cy="62" r="1.5"></circle>
                <circle id="Oval" cx="77" cy="62" r="1.5"></circle>
                <circle id="Oval" cx="69" cy="62" r="1.5"></circle>
                <circle id="Oval" cx="62" cy="62" r="1.5"></circle>
                <circle id="Oval" cx="54" cy="62" r="1.5"></circle>
                <circle id="Oval" cx="47" cy="62" r="1.5"></circle>
                <circle id="Oval" cx="39" cy="62" r="1.5"></circle>
                <circle id="Oval" cx="32" cy="62" r="1.5"></circle>
                <circle id="Oval" cx="24" cy="62" r="1.5"></circle>
                <circle id="Oval" cx="17" cy="62" r="1.5"></circle>
                <circle id="Oval" cx="9" cy="62" r="1.5"></circle>
                <circle id="Oval" cx="2" cy="62" r="1.5"></circle>
                <circle id="Oval" cx="234" cy="56" r="1.5"></circle>
                <circle id="Oval" cx="227" cy="56" r="1.5"></circle>
                <circle id="Oval" cx="219" cy="56" r="1.5"></circle>
                <circle id="Oval" cx="212" cy="56" r="1.5"></circle>
                <circle id="Oval" cx="204" cy="56" r="1.5"></circle>
                <circle id="Oval" cx="197" cy="56" r="1.5"></circle>
                <circle id="Oval" cx="189" cy="56" r="1.5"></circle>
                <circle id="Oval" cx="182" cy="56" r="1.5"></circle>
                <circle id="Oval" cx="174" cy="56" r="1.5"></circle>
                <circle id="Oval" cx="167" cy="56" r="1.5"></circle>
                <circle id="Oval" cx="159" cy="56" r="1.5"></circle>
                <circle id="Oval" cx="152" cy="56" r="1.5"></circle>
                <circle id="Oval" cx="144" cy="56" r="1.5"></circle>
                <circle id="Oval" cx="137" cy="56" r="1.5"></circle>
                <circle id="Oval" cx="129" cy="56" r="1.5"></circle>
                <circle id="Oval" cx="121" cy="56" r="1.5"></circle>
                <circle id="Oval" cx="114" cy="56" r="1.5"></circle>
                <circle id="Oval" cx="106" cy="56" r="1.5"></circle>
                <circle id="Oval" cx="99" cy="56" r="1.5"></circle>
                <circle id="Oval" cx="92" cy="56" r="1.5"></circle>
                <circle id="Oval" cx="84" cy="56" r="1.5"></circle>
                <circle id="Oval" cx="77" cy="56" r="1.5"></circle>
                <circle id="Oval" cx="69" cy="56" r="1.5"></circle>
                <circle id="Oval" cx="62" cy="56" r="1.5"></circle>
                <circle id="Oval" cx="54" cy="56" r="1.5"></circle>
                <circle id="Oval" cx="47" cy="56" r="1.5"></circle>
                <circle id="Oval" cx="39" cy="56" r="1.5"></circle>
                <circle id="Oval" cx="32" cy="56" r="1.5"></circle>
                <circle id="Oval" cx="24" cy="56" r="1.5"></circle>
                <circle id="Oval" cx="17" cy="56" r="1.5"></circle>
                <circle id="Oval" cx="9" cy="56" r="1.5"></circle>
                <circle id="Oval" cx="2" cy="56" r="1.5"></circle>
                <circle id="Oval" cx="234" cy="51" r="1.5"></circle>
                <circle id="Oval" cx="227" cy="51" r="1.5"></circle>
                <circle id="Oval" cx="219" cy="51" r="1.5"></circle>
                <circle id="Oval" cx="212" cy="51" r="1.5"></circle>
                <circle id="Oval" cx="204" cy="51" r="1.5"></circle>
                <circle id="Oval" cx="197" cy="51" r="1.5"></circle>
                <circle id="Oval" cx="189" cy="51" r="1.5"></circle>
                <circle id="Oval" cx="182" cy="51" r="1.5"></circle>
                <circle id="Oval" cx="174" cy="51" r="1.5"></circle>
                <circle id="Oval" cx="167" cy="51" r="1.5"></circle>
                <circle id="Oval" cx="159" cy="51" r="1.5"></circle>
                <circle id="Oval" cx="152" cy="51" r="1.5"></circle>
                <circle id="Oval" cx="144" cy="51" r="1.5"></circle>
                <circle id="Oval" cx="137" cy="51" r="1.5"></circle>
                <circle id="Oval" cx="129" cy="51" r="1.5"></circle>
                <circle id="Oval" cx="121" cy="51" r="1.5"></circle>
                <circle id="Oval" cx="114" cy="51" r="1.5"></circle>
                <circle id="Oval" cx="106" cy="51" r="1.5"></circle>
                <circle id="Oval" cx="99" cy="51" r="1.5"></circle>
                <circle id="Oval" cx="92" cy="51" r="1.5"></circle>
                <circle id="Oval" cx="84" cy="51" r="1.5"></circle>
                <circle id="Oval" cx="77" cy="51" r="1.5"></circle>
                <circle id="Oval" cx="69" cy="51" r="1.5"></circle>
                <circle id="Oval" cx="62" cy="51" r="1.5"></circle>
                <circle id="Oval" cx="54" cy="51" r="1.5"></circle>
                <circle id="Oval" cx="47" cy="51" r="1.5"></circle>
                <circle id="Oval" cx="39" cy="51" r="1.5"></circle>
                <circle id="Oval" cx="32" cy="51" r="1.5"></circle>
                <circle id="Oval" cx="24" cy="51" r="1.5"></circle>
                <circle id="Oval" cx="17" cy="51" r="1.5"></circle>
                <circle id="Oval" cx="9" cy="51" r="1.5"></circle>
                <circle id="Oval" cx="2" cy="51" r="1.5"></circle>
                <circle id="Oval" cx="234" cy="45" r="1.5"></circle>
                <circle id="Oval" cx="227" cy="45" r="1.5"></circle>
                <circle id="Oval" cx="219" cy="45" r="1.5"></circle>
                <circle id="Oval" cx="212" cy="45" r="1.5"></circle>
                <circle id="Oval" cx="204" cy="45" r="1.5"></circle>
                <circle id="Oval" cx="197" cy="45" r="1.5"></circle>
                <circle id="Oval" cx="189" cy="45" r="1.5"></circle>
                <circle id="Oval" cx="182" cy="45" r="1.5"></circle>
                <circle id="Oval" cx="174" cy="45" r="1.5"></circle>
                <circle id="Oval" cx="167" cy="45" r="1.5"></circle>
                <circle id="Oval" cx="159" cy="45" r="1.5"></circle>
                <circle id="Oval" cx="152" cy="45" r="1.5"></circle>
                <circle id="Oval" cx="144" cy="45" r="1.5"></circle>
                <circle id="Oval" cx="137" cy="45" r="1.5"></circle>
                <circle id="Oval" cx="129" cy="45" r="1.5"></circle>
                <circle id="Oval" cx="121" cy="45" r="1.5"></circle>
                <circle id="Oval" cx="114" cy="45" r="1.5"></circle>
                <circle id="Oval" cx="106" cy="45" r="1.5"></circle>
                <circle id="Oval" cx="99" cy="45" r="1.5"></circle>
                <circle id="Oval" cx="92" cy="45" r="1.5"></circle>
                <circle id="Oval" cx="84" cy="45" r="1.5"></circle>
                <circle id="Oval" cx="77" cy="45" r="1.5"></circle>
                <circle id="Oval" cx="69" cy="45" r="1.5"></circle>
                <circle id="Oval" cx="62" cy="45" r="1.5"></circle>
                <circle id="Oval" cx="54" cy="45" r="1.5"></circle>
                <circle id="Oval" cx="47" cy="45" r="1.5"></circle>
                <circle id="Oval" cx="39" cy="45" r="1.5"></circle>
                <circle id="Oval" cx="32" cy="45" r="1.5"></circle>
                <circle id="Oval" cx="24" cy="45" r="1.5"></circle>
                <circle id="Oval" cx="17" cy="45" r="1.5"></circle>
                <circle id="Oval" cx="9" cy="45" r="1.5"></circle>
                <circle id="Oval" cx="2" cy="45" r="1.5"></circle>
                <circle id="Oval" cx="234" cy="40" r="1.5"></circle>
                <circle id="Oval" cx="227" cy="40" r="1.5"></circle>
                <circle id="Oval" cx="219" cy="40" r="1.5"></circle>
                <circle id="Oval" cx="212" cy="40" r="1.5"></circle>
                <circle id="Oval" cx="204" cy="40" r="1.5"></circle>
                <circle id="Oval" cx="197" cy="40" r="1.5"></circle>
                <circle id="Oval" cx="189" cy="40" r="1.5"></circle>
                <circle id="Oval" cx="182" cy="40" r="1.5"></circle>
                <circle id="Oval" cx="174" cy="40" r="1.5"></circle>
                <circle id="Oval" cx="167" cy="40" r="1.5"></circle>
                <circle id="Oval" cx="159" cy="40" r="1.5"></circle>
                <circle id="Oval" cx="152" cy="40" r="1.5"></circle>
                <circle id="Oval" cx="144" cy="40" r="1.5"></circle>
                <circle id="Oval" cx="137" cy="40" r="1.5"></circle>
                <circle id="Oval" cx="129" cy="40" r="1.5"></circle>
                <circle id="Oval" cx="121" cy="40" r="1.5"></circle>
                <circle id="Oval" cx="114" cy="40" r="1.5"></circle>
                <circle id="Oval" cx="106" cy="40" r="1.5"></circle>
                <circle id="Oval" cx="99" cy="40" r="1.5"></circle>
                <circle id="Oval" cx="92" cy="40" r="1.5"></circle>
                <circle id="Oval" cx="84" cy="40" r="1.5"></circle>
                <circle id="Oval" cx="77" cy="40" r="1.5"></circle>
                <circle id="Oval" cx="69" cy="40" r="1.5"></circle>
                <circle id="Oval" cx="62" cy="40" r="1.5"></circle>
                <circle id="Oval" cx="54" cy="40" r="1.5"></circle>
                <circle id="Oval" cx="47" cy="40" r="1.5"></circle>
                <circle id="Oval" cx="39" cy="40" r="1.5"></circle>
                <circle id="Oval" cx="32" cy="40" r="1.5"></circle>
                <circle id="Oval" cx="24" cy="40" r="1.5"></circle>
                <circle id="Oval" cx="17" cy="40" r="1.5"></circle>
                <circle id="Oval" cx="9" cy="40" r="1.5"></circle>
                <circle id="Oval" cx="2" cy="40" r="1.5"></circle>
                <circle id="Oval" cx="234" cy="35" r="1.5"></circle>
                <circle id="Oval" cx="227" cy="35" r="1.5"></circle>
                <circle id="Oval" cx="219" cy="35" r="1.5"></circle>
                <circle id="Oval" cx="212" cy="35" r="1.5"></circle>
                <circle id="Oval" cx="204" cy="35" r="1.5"></circle>
                <circle id="Oval" cx="197" cy="35" r="1.5"></circle>
                <circle id="Oval" cx="189" cy="35" r="1.5"></circle>
                <circle id="Oval" cx="182" cy="35" r="1.5"></circle>
                <circle id="Oval" cx="174" cy="35" r="1.5"></circle>
                <circle id="Oval" cx="167" cy="35" r="1.5"></circle>
                <circle id="Oval" cx="159" cy="35" r="1.5"></circle>
                <circle id="Oval" cx="152" cy="35" r="1.5"></circle>
                <circle id="Oval" cx="144" cy="35" r="1.5"></circle>
                <circle id="Oval" cx="137" cy="35" r="1.5"></circle>
                <circle id="Oval" cx="129" cy="35" r="1.5"></circle>
                <circle id="Oval" cx="121" cy="35" r="1.5"></circle>
                <circle id="Oval" cx="114" cy="35" r="1.5"></circle>
                <circle id="Oval" cx="106" cy="35" r="1.5"></circle>
                <circle id="Oval" cx="99" cy="35" r="1.5"></circle>
                <circle id="Oval" cx="92" cy="35" r="1.5"></circle>
                <circle id="Oval" cx="84" cy="35" r="1.5"></circle>
                <circle id="Oval" cx="77" cy="35" r="1.5"></circle>
                <circle id="Oval" cx="69" cy="35" r="1.5"></circle>
                <circle id="Oval" cx="62" cy="35" r="1.5"></circle>
                <circle id="Oval" cx="54" cy="35" r="1.5"></circle>
                <circle id="Oval" cx="47" cy="35" r="1.5"></circle>
                <circle id="Oval" cx="39" cy="35" r="1.5"></circle>
                <circle id="Oval" cx="32" cy="35" r="1.5"></circle>
                <circle id="Oval" cx="24" cy="35" r="1.5"></circle>
                <circle id="Oval" cx="17" cy="35" r="1.5"></circle>
                <circle id="Oval" cx="9" cy="35" r="1.5"></circle>
                <circle id="Oval" cx="2" cy="35" r="1.5"></circle>
                <circle id="Oval" cx="234" cy="29" r="1.5"></circle>
                <circle id="Oval" cx="227" cy="29" r="1.5"></circle>
                <circle id="Oval" cx="219" cy="29" r="1.5"></circle>
                <circle id="Oval" cx="212" cy="29" r="1.5"></circle>
                <circle id="Oval" cx="204" cy="29" r="1.5"></circle>
                <circle id="Oval" cx="197" cy="29" r="1.5"></circle>
                <circle id="Oval" cx="189" cy="29" r="1.5"></circle>
                <circle id="Oval" cx="182" cy="29" r="1.5"></circle>
                <circle id="Oval" cx="174" cy="29" r="1.5"></circle>
                <circle id="Oval" cx="167" cy="29" r="1.5"></circle>
                <circle id="Oval" cx="159" cy="29" r="1.5"></circle>
                <circle id="Oval" cx="152" cy="29" r="1.5"></circle>
                <circle id="Oval" cx="144" cy="29" r="1.5"></circle>
                <circle id="Oval" cx="137" cy="29" r="1.5"></circle>
                <circle id="Oval" cx="129" cy="29" r="1.5"></circle>
                <circle id="Oval" cx="121" cy="29" r="1.5"></circle>
                <circle id="Oval" cx="114" cy="29" r="1.5"></circle>
                <circle id="Oval" cx="106" cy="29" r="1.5"></circle>
                <circle id="Oval" cx="99" cy="29" r="1.5"></circle>
                <circle id="Oval" cx="92" cy="29" r="1.5"></circle>
                <circle id="Oval" cx="84" cy="29" r="1.5"></circle>
                <circle id="Oval" cx="77" cy="29" r="1.5"></circle>
                <circle id="Oval" cx="69" cy="29" r="1.5"></circle>
                <circle id="Oval" cx="62" cy="29" r="1.5"></circle>
                <circle id="Oval" cx="54" cy="29" r="1.5"></circle>
                <circle id="Oval" cx="47" cy="29" r="1.5"></circle>
                <circle id="Oval" cx="39" cy="29" r="1.5"></circle>
                <circle id="Oval" cx="32" cy="29" r="1.5"></circle>
                <circle id="Oval" cx="24" cy="29" r="1.5"></circle>
                <circle id="Oval" cx="17" cy="29" r="1.5"></circle>
                <circle id="Oval" cx="9" cy="29" r="1.5"></circle>
                <circle id="Oval" cx="2" cy="29" r="1.5"></circle>
                <circle id="Oval" cx="234" cy="24" r="1.5"></circle>
                <circle id="Oval" cx="227" cy="24" r="1.5"></circle>
                <circle id="Oval" cx="219" cy="24" r="1.5"></circle>
                <circle id="Oval" cx="212" cy="24" r="1.5"></circle>
                <circle id="Oval" cx="204" cy="24" r="1.5"></circle>
                <circle id="Oval" cx="197" cy="24" r="1.5"></circle>
                <circle id="Oval" cx="189" cy="24" r="1.5"></circle>
                <circle id="Oval" cx="182" cy="24" r="1.5"></circle>
                <circle id="Oval" cx="174" cy="24" r="1.5"></circle>
                <circle id="Oval" cx="167" cy="24" r="1.5"></circle>
                <circle id="Oval" cx="159" cy="24" r="1.5"></circle>
                <circle id="Oval" cx="152" cy="24" r="1.5"></circle>
                <circle id="Oval" cx="144" cy="24" r="1.5"></circle>
                <circle id="Oval" cx="137" cy="24" r="1.5"></circle>
                <circle id="Oval" cx="129" cy="24" r="1.5"></circle>
                <circle id="Oval" cx="121" cy="24" r="1.5"></circle>
                <circle id="Oval" cx="114" cy="24" r="1.5"></circle>
                <circle id="Oval" cx="106" cy="24" r="1.5"></circle>
                <circle id="Oval" cx="99" cy="24" r="1.5"></circle>
                <circle id="Oval" cx="92" cy="24" r="1.5"></circle>
                <circle id="Oval" cx="84" cy="24" r="1.5"></circle>
                <circle id="Oval" cx="77" cy="24" r="1.5"></circle>
                <circle id="Oval" cx="69" cy="24" r="1.5"></circle>
                <circle id="Oval" cx="62" cy="24" r="1.5"></circle>
                <circle id="Oval" cx="54" cy="24" r="1.5"></circle>
                <circle id="Oval" cx="47" cy="24" r="1.5"></circle>
                <circle id="Oval" cx="39" cy="24" r="1.5"></circle>
                <circle id="Oval" cx="32" cy="24" r="1.5"></circle>
                <circle id="Oval" cx="24" cy="24" r="1.5"></circle>
                <circle id="Oval" cx="17" cy="24" r="1.5"></circle>
                <circle id="Oval" cx="9" cy="24" r="1.5"></circle>
                <circle id="Oval" cx="2" cy="24" r="1.5"></circle>
                <circle id="Oval" cx="234" cy="18" r="1.5"></circle>
                <circle id="Oval" cx="227" cy="18" r="1.5"></circle>
                <circle id="Oval" cx="219" cy="18" r="1.5"></circle>
                <circle id="Oval" cx="212" cy="18" r="1.5"></circle>
                <circle id="Oval" cx="204" cy="18" r="1.5"></circle>
                <circle id="Oval" cx="197" cy="18" r="1.5"></circle>
                <circle id="Oval" cx="189" cy="18" r="1.5"></circle>
                <circle id="Oval" cx="182" cy="18" r="1.5"></circle>
                <circle id="Oval" cx="174" cy="18" r="1.5"></circle>
                <circle id="Oval" cx="167" cy="18" r="1.5"></circle>
                <circle id="Oval" cx="159" cy="18" r="1.5"></circle>
                <circle id="Oval" cx="152" cy="18" r="1.5"></circle>
                <circle id="Oval" cx="144" cy="18" r="1.5"></circle>
                <circle id="Oval" cx="137" cy="18" r="1.5"></circle>
                <circle id="Oval" cx="129" cy="18" r="1.5"></circle>
                <circle id="Oval" cx="121" cy="18" r="1.5"></circle>
                <circle id="Oval" cx="114" cy="18" r="1.5"></circle>
                <circle id="Oval" cx="106" cy="18" r="1.5"></circle>
                <circle id="Oval" cx="99" cy="18" r="1.5"></circle>
                <circle id="Oval" cx="92" cy="18" r="1.5"></circle>
                <circle id="Oval" cx="84" cy="18" r="1.5"></circle>
                <circle id="Oval" cx="77" cy="18" r="1.5"></circle>
                <circle id="Oval" cx="69" cy="18" r="1.5"></circle>
                <circle id="Oval" cx="62" cy="18" r="1.5"></circle>
                <circle id="Oval" cx="54" cy="18" r="1.5"></circle>
                <circle id="Oval" cx="47" cy="18" r="1.5"></circle>
                <circle id="Oval" cx="39" cy="18" r="1.5"></circle>
                <circle id="Oval" cx="32" cy="18" r="1.5"></circle>
                <circle id="Oval" cx="24" cy="18" r="1.5"></circle>
                <circle id="Oval" cx="17" cy="18" r="1.5"></circle>
                <circle id="Oval" cx="9" cy="18" r="1.5"></circle>
                <circle id="Oval" cx="2" cy="18" r="1.5"></circle>
                <circle id="Oval" cx="234" cy="13" r="1.5"></circle>
                <circle id="Oval" cx="227" cy="13" r="1.5"></circle>
                <circle id="Oval" cx="219" cy="13" r="1.5"></circle>
                <circle id="Oval" cx="212" cy="13" r="1.5"></circle>
                <circle id="Oval" cx="204" cy="13" r="1.5"></circle>
                <circle id="Oval" cx="197" cy="13" r="1.5"></circle>
                <circle id="Oval" cx="189" cy="13" r="1.5"></circle>
                <circle id="Oval" cx="182" cy="13" r="1.5"></circle>
                <circle id="Oval" cx="174" cy="13" r="1.5"></circle>
                <circle id="Oval" cx="167" cy="13" r="1.5"></circle>
                <circle id="Oval" cx="159" cy="13" r="1.5"></circle>
                <circle id="Oval" cx="152" cy="13" r="1.5"></circle>
                <circle id="Oval" cx="144" cy="13" r="1.5"></circle>
                <circle id="Oval" cx="137" cy="13" r="1.5"></circle>
                <circle id="Oval" cx="129" cy="13" r="1.5"></circle>
                <circle id="Oval" cx="121" cy="13" r="1.5"></circle>
                <circle id="Oval" cx="114" cy="13" r="1.5"></circle>
                <circle id="Oval" cx="106" cy="13" r="1.5"></circle>
                <circle id="Oval" cx="99" cy="13" r="1.5"></circle>
                <circle id="Oval" cx="92" cy="13" r="1.5"></circle>
                <circle id="Oval" cx="84" cy="13" r="1.5"></circle>
                <circle id="Oval" cx="77" cy="13" r="1.5"></circle>
                <circle id="Oval" cx="69" cy="13" r="1.5"></circle>
                <circle id="Oval" cx="62" cy="13" r="1.5"></circle>
                <circle id="Oval" cx="54" cy="13" r="1.5"></circle>
                <circle id="Oval" cx="47" cy="13" r="1.5"></circle>
                <circle id="Oval" cx="39" cy="13" r="1.5"></circle>
                <circle id="Oval" cx="32" cy="13" r="1.5"></circle>
                <circle id="Oval" cx="24" cy="13" r="1.5"></circle>
                <circle id="Oval" cx="17" cy="13" r="1.5"></circle>
                <circle id="Oval" cx="9" cy="13" r="1.5"></circle>
                <circle id="Oval" cx="2" cy="13" r="1.5"></circle>
                <circle id="Oval" cx="234" cy="8" r="1.5"></circle>
                <circle id="Oval" cx="227" cy="8" r="1.5"></circle>
                <circle id="Oval" cx="219" cy="8" r="1.5"></circle>
                <circle id="Oval" cx="212" cy="8" r="1.5"></circle>
                <circle id="Oval" cx="204" cy="8" r="1.5"></circle>
                <circle id="Oval" cx="197" cy="8" r="1.5"></circle>
                <circle id="Oval" cx="189" cy="8" r="1.5"></circle>
                <circle id="Oval" cx="182" cy="8" r="1.5"></circle>
                <circle id="Oval" cx="174" cy="8" r="1.5"></circle>
                <circle id="Oval" cx="167" cy="8" r="1.5"></circle>
                <circle id="Oval" cx="159" cy="8" r="1.5"></circle>
                <circle id="Oval" cx="152" cy="8" r="1.5"></circle>
                <circle id="Oval" cx="144" cy="8" r="1.5"></circle>
                <circle id="Oval" cx="137" cy="8" r="1.5"></circle>
                <circle id="Oval" cx="129" cy="8" r="1.5"></circle>
                <circle id="Oval" cx="121" cy="8" r="1.5"></circle>
                <circle id="Oval" cx="114" cy="8" r="1.5"></circle>
                <circle id="Oval" cx="106" cy="8" r="1.5"></circle>
                <circle id="Oval" cx="99" cy="8" r="1.5"></circle>
                <circle id="Oval" cx="92" cy="8" r="1.5"></circle>
                <circle id="Oval" cx="84" cy="8" r="1.5"></circle>
                <circle id="Oval" cx="77" cy="8" r="1.5"></circle>
                <circle id="Oval" cx="69" cy="8" r="1.5"></circle>
                <circle id="Oval" cx="62" cy="8" r="1.5"></circle>
                <circle id="Oval" cx="54" cy="8" r="1.5"></circle>
                <circle id="Oval" cx="47" cy="8" r="1.5"></circle>
                <circle id="Oval" cx="39" cy="8" r="1.5"></circle>
                <circle id="Oval" cx="32" cy="8" r="1.5"></circle>
                <circle id="Oval" cx="24" cy="8" r="1.5"></circle>
                <circle id="Oval" cx="17" cy="8" r="1.5"></circle>
                <circle id="Oval" cx="9" cy="8" r="1.5"></circle>
                <circle id="Oval" cx="2" cy="8" r="1.5"></circle>
                <circle id="Oval" cx="234" cy="2" r="1.5"></circle>
                <circle id="Oval" cx="227" cy="2" r="1.5"></circle>
                <circle id="Oval" cx="219" cy="2" r="1.5"></circle>
                <circle id="Oval" cx="212" cy="2" r="1.5"></circle>
                <circle id="Oval" cx="204" cy="2" r="1.5"></circle>
                <circle id="Oval" cx="197" cy="2" r="1.5"></circle>
                <circle id="Oval" cx="189" cy="2" r="1.5"></circle>
                <circle id="Oval" cx="182" cy="2" r="1.5"></circle>
                <circle id="Oval" cx="174" cy="2" r="1.5"></circle>
                <circle id="Oval" cx="167" cy="2" r="1.5"></circle>
                <circle id="Oval" cx="159" cy="2" r="1.5"></circle>
                <circle id="Oval" cx="152" cy="2" r="1.5"></circle>
                <circle id="Oval" cx="144" cy="2" r="1.5"></circle>
                <circle id="Oval" cx="137" cy="2" r="1.5"></circle>
                <circle id="Oval" cx="129" cy="2" r="1.5"></circle>
                <circle id="Oval" cx="121" cy="2" r="1.5"></circle>
                <circle id="Oval" cx="114" cy="2" r="1.5"></circle>
                <circle id="Oval" cx="106" cy="2" r="1.5"></circle>
                <circle id="Oval" cx="99" cy="2" r="1.5"></circle>
                <circle id="Oval" cx="92" cy="2" r="1.5"></circle>
                <circle id="Oval" cx="84" cy="2" r="1.5"></circle>
                <circle id="Oval" cx="77" cy="2" r="1.5"></circle>
                <circle id="Oval" cx="69" cy="2" r="1.5"></circle>
                <circle id="Oval" cx="62" cy="2" r="1.5"></circle>
                <circle id="Oval" cx="54" cy="2" r="1.5"></circle>
                <circle id="Oval" cx="47" cy="2" r="1.5"></circle>
                <circle id="Oval" cx="39" cy="2" r="1.5"></circle>
                <circle id="Oval" cx="32" cy="2" r="1.5"></circle>
                <circle id="Oval" cx="24" cy="2" r="1.5"></circle>
                <circle id="Oval" cx="17" cy="2" r="1.5"></circle>
                <circle id="Oval" cx="9" cy="2" r="1.5"></circle>
                <circle id="Oval" cx="2" cy="2" r="1.5"></circle>
            </g>
        </g>
    </g>
</svg>