<?xml version="1.0" encoding="UTF-8"?>
<svg width="1345px" height="454px" viewBox="0 0 1345 454" version="1.1" xmlns="http://www.w3.org/2000/svg" xmlns:xlink="http://www.w3.org/1999/xlink">
    <!-- Generator: Sketch 64 (93537) - https://sketch.com -->
    <title>mountain-graphic</title>
    <desc>Created with Sketch.</desc>
    <defs>
        <rect id="path-1" x="0" y="0" width="1440" height="580"></rect>
    </defs>
    <g id="Welcome" stroke="none" stroke-width="1" fill="none" fill-rule="evenodd">
        <g id="Home-Page---Section-1---Desktop-" transform="translate(-69.000000, -314.000000)">
            <g id="mountain-graphic" transform="translate(720.000000, 478.000000) scale(-1, 1) translate(-720.000000, -478.000000) translate(0.000000, 188.000000)">
                <mask id="mask-2" fill="white">
                    <use xlink:href="#path-1"></use>
                </mask>
                <g id="Mask"></g>
                <g opacity="0.330008371" mask="url(#mask-2)">
                    <g transform="translate(1.000000, 126.000000)">
                        <g id="Layer_2-2">
                            <path d="M0,505.748258 C0,505.748258 86.9405479,308.477511 148.066283,300.603044 C209.192019,292.728576 301.499087,306.865607 320.286777,263.027663 C339.074467,219.189719 417.341901,97.0697328 417.341901,97.0697328 C417.341901,97.0697328 436.129591,68.8881975 489.36138,50.1005073 C542.593169,31.312817 573.920595,0 573.920595,0 C573.920595,0 624.021102,9.39384511 633.414948,31.312817 C642.808793,53.231789 717.959554,150.301522 717.959554,150.301522 L752.384173,259.896381 C752.384173,259.896381 758.646737,350.703551 802.48468,375.753805 C846.322624,400.804058 1115.61285,510.398918 1115.61285,510.398918 L0,505.748258 Z" id="Path" fill="#CCCCCB" fill-rule="nonzero"></path>
                            <path d="M573.920595,0 L590.424349,56.3192425 C590.424349,56.3192425 581.030504,76.6701387 559.111532,87.6320595 C537.19256,98.5939804 492.575448,112.682313 492.575448,112.682313 C492.575448,112.682313 552.848969,140.079811 560.679608,159.651539 C568.510247,179.223267 641.308894,213.662496 640.544335,233.234224 C639.779777,252.805952 662.458438,318.562868 625.671965,342.045046 C588.885492,365.527224 539.559283,391.366385 539.559283,391.366385 L708.653365,508.699357 L1115.65181,510.398918 L956.01975,428.941765 C956.01975,428.941765 800.595198,363.574434 776.845181,348.249171 C770.081028,344.002705 754.259046,288.959351 754.341833,276.361177 C754.42462,263.763003 727.202435,162.339669 717.959554,150.301522 C708.716672,138.263375 647.245181,58.3742983 642.326682,46.7793033 C637.408184,35.1843084 635.241123,28.629557 626.801759,22.3280352 C618.362394,16.0265134 595.815218,5.1717281 584.863037,2.58586405 L573.920595,0 Z" id="Path" fill="#F2F2F3" fill-rule="nonzero"></path>
                            <path d="M304.172607,314.647548 C304.172607,314.647548 262.423808,327.172675 187.297396,398.150017 C112.170984,469.127359 28.6198174,481.647616 28.6198174,481.647616 L20.453162,462.928103 C20.453162,462.928103 90.2909706,376.308962 111.645046,322.517146 C132.999121,268.72533 183.104498,302.122421 237.373554,302.122421 C291.642611,302.122421 304.172607,314.647548 304.172607,314.647548 Z" id="Path" fill="#F2F2F3" fill-rule="nonzero"></path>
                        </g>
                        <g id="Layer_4" transform="translate(637.943862, 201.609740)">
                            <path d="M0.224010822,306.79743 C0.224010822,306.79743 65.9663172,194.451133 109.82861,188.188569 C153.690903,181.926006 244.463984,106.775245 256.99885,91.1188367 C269.533717,75.4624281 347.80602,0.31166723 347.80602,0.31166723 C347.80602,0.31166723 366.59371,12.836794 382.250118,25.3619209 C397.906527,37.8870477 460.532161,134.956781 491.820629,144.350626 C523.109097,153.744471 582.627798,138.088062 582.627798,138.088062 L667.172404,216.370105 L729.822388,250.794724 L801.841867,306.79743 L0.224010822,306.79743 Z" id="Path" fill="#E6E6E6" fill-rule="nonzero"></path>
                            <path d="M117.133311,202.802841 L221.512614,142.266351 L282.049104,79.6407169 L327.976192,31.6244843 L365.551573,31.6244843 C365.551573,31.6244843 319.624484,52.5013189 311.272776,83.8141359 C302.921069,115.126953 319.624484,142.251742 344.674738,146.43977 C369.724992,150.627798 403.112344,153.554549 403.112344,153.554549 C403.112344,153.554549 323.797903,163.138316 273.682787,198.629422 C223.56767,234.120528 171.416977,271.676429 171.416977,271.676429 C171.416977,271.676429 146.366723,246.626175 115.053906,248.71045 C83.7410889,250.794724 48.2499831,259.151302 48.2499831,259.151302 L117.133311,202.802841 Z" id="Path" fill="#CCCCCB" fill-rule="nonzero"></path>
                            <path d="M639.015218,215.327968 C639.015218,215.327968 586.810957,246.640785 511.674806,250.794724 C436.538654,254.948664 380.160974,250.794724 380.160974,250.794724 C380.160974,250.794724 507.501387,227.833615 509.590531,206.96652 C511.679675,186.099425 501.238823,167.306865 501.238823,167.306865 C501.238823,167.306865 565.953602,169.011295 574.28583,153.544809 C582.618059,138.078323 674.486845,202.793101 667.182144,216.365235 C659.877443,229.937369 639.015218,215.327968 639.015218,215.327968 Z" id="Path" fill="#CCCCCB" fill-rule="nonzero"></path>
                        </g>
                    </g>
                </g>
            </g>
        </g>
    </g>
</svg>