<?xml version="1.0" encoding="UTF-8"?>
<svg width="399px" height="63px" viewBox="0 0 399 63" version="1.1" xmlns="http://www.w3.org/2000/svg" xmlns:xlink="http://www.w3.org/1999/xlink">
    <!-- Generator: Sketch 64 (93537) - https://sketch.com -->
    <title>logo-2020</title>
    <desc>Created with Sketch.</desc>
    <g id="Icons-&amp;-components" stroke="none" stroke-width="1" fill="none" fill-rule="evenodd">
        <g id="branding/logo-2020-black" transform="translate(1.000000, 0.000000)" fill="#231F20" fill-rule="nonzero">
            <g id="logo-2020" transform="translate(-1.000000, 0.000000)">
                <g id="TEXT" transform="translate(159.000000, 0.000000)">
                    <path d="M221.942294,62.9918322 C227.577651,62.9918322 231.988678,61.8699144 235.175377,59.6260788 C238.362075,57.3822432 239.951121,54.34875 239.942549,50.5255993 C239.942549,47.701387 239.195867,45.4855993 237.702573,43.8782363 C236.237591,42.2864501 234.379316,41.1108658 232.31574,40.470411 C229.564783,39.6468904 226.769527,38.980224 223.943394,38.473613 C221.709989,38.1046005 219.497194,37.6195814 217.313942,37.0205137 C215.821311,36.6104004 214.445151,35.8556237 213.295604,34.8165925 C212.219743,33.8198116 211.681813,32.4907705 211.681813,30.8294692 C211.681813,28.6719349 212.635025,26.9264897 214.54145,25.5931336 C216.447875,24.2597774 219.279539,23.5952568 223.036444,23.5995719 C228.011222,23.5995719 232.293147,24.8455479 235.882217,27.3375 L238.464282,22.5995548 C236.643926,21.3827055 234.323295,20.3999486 231.502389,19.6512842 C228.745177,18.9111004 225.90367,18.5336026 223.049354,18.5282877 C217.633473,18.5282877 213.406417,19.6922774 210.368187,22.0202568 C207.329958,24.3482363 205.80116,27.3439726 205.781795,31.0074658 C205.781795,33.9460274 206.541352,36.2459589 208.060467,37.9072603 C209.554121,39.550983 211.454944,40.7691441 213.569948,41.4380651 C216.373352,42.2878506 219.225238,42.967625 222.110128,43.4736986 C224.261662,43.8076156 226.392181,44.2657748 228.491056,44.8458904 C229.951999,45.2413067 231.309842,45.9502202 232.470664,46.9235959 C233.520703,47.8362329 234.044647,49.0962329 234.042496,50.7035959 C234.110374,52.8518903 233.017146,54.8698047 231.182859,55.9820034 C229.278586,57.2269007 226.337183,57.8504281 222.358652,57.8525856 C219.430202,57.8621301 216.519324,57.3988029 213.737782,56.4803938 C211.256699,55.7137264 208.928048,54.5188751 206.856579,52.949589 L204.206735,57.6033904 C206.029242,59.1546575 208.556439,60.4427055 211.788323,61.4675342 C215.074583,62.4965457 218.499574,63.0106999 221.942294,62.9918322 L221.942294,62.9918322 Z M152.320139,62.5775856 L166.079318,26.7549658 L179.838497,62.5775856 L185.389936,62.5775856 L201.879649,18.8616267 L196.489588,18.8616267 L182.64972,56.0111301 L168.73239,18.8616267 L163.67477,18.8616267 L149.667068,56.0111301 L135.991806,18.8616267 L130.356449,18.8616267 L146.765472,62.5775856 L152.320139,62.5775856 Z M103.002698,58.3381037 C99.5233658,58.3381037 96.8165011,57.6033904 94.8821041,56.1341096 C92.9477071,54.6648288 91.9794327,52.6572432 91.977281,50.1113527 C91.977281,44.9009075 95.707289,42.2967637 103.167305,42.2989199 L116.842567,42.2989199 L116.842567,49.4543836 C115.680637,52.3346918 113.911923,54.5375342 111.536423,56.062911 C109.160923,57.5882877 106.316348,58.346661 103.002698,58.3381037 L103.002698,58.3381037 Z M102.09252,62.9918322 C105.62995,62.9918322 108.683241,62.3542808 111.252396,61.0791781 C113.685163,59.930884 115.719697,58.0790772 117.094318,55.7619349 L117.094318,62.5775856 L122.729675,62.5775856 L122.729675,35.4832705 C122.729675,29.8887842 121.21056,25.6643322 118.17233,22.8099144 C115.1341,19.9554966 110.768259,18.5279596 105.074806,18.5279596 C101.753938,18.5130014 98.4521282,19.0320103 95.2952345,20.0655308 C92.3862545,20.9887728 89.6841002,22.4704545 87.3392468,24.4280651 L89.9923185,28.8326712 C91.9165229,27.1695105 94.1375222,25.8868991 96.5378532,25.0526712 C99.091795,24.1370899 101.784812,23.672806 104.497069,23.6804795 C108.529393,23.6804795 111.595595,24.6643151 113.695675,26.6319863 C115.795754,28.5996575 116.845794,31.4670205 116.845794,35.2340753 L116.845794,37.8943151 L103.002698,37.8943151 C97.1478661,37.8943151 92.8799278,39.0291781 90.1988837,41.2989041 C87.5178396,43.5686301 86.1773175,46.5611301 86.1773175,50.2764041 C86.1773175,54.0995548 87.614667,57.1740411 90.489366,59.499863 C93.364065,61.8256849 97.2317832,62.9896747 102.09252,62.9918322 Z M63.2195324,62.5775856 L63.2195324,40.3021233 C63.2195324,35.2060274 64.5180959,31.2447945 67.1152229,28.4184247 C69.7123499,25.5920548 73.3035719,24.1788699 77.888889,24.1788699 L79.299342,24.2630137 L79.299342,18.5282877 C75.2648654,18.5282877 71.8802086,19.2769521 69.1453715,20.7742808 C66.4216218,22.2585529 64.2541685,24.5920486 62.9710086,27.4216438 L62.9710086,18.8616267 L57.3356518,18.8616267 L57.3356518,62.5775856 L63.2195324,62.5775856 Z M37.4440688,62.9919413 C39.173633,62.9981313 40.8934255,62.7316569 42.5404195,62.2021747 C44.0505141,61.7395966 45.445458,60.9608181 46.6329925,59.9173459 L44.5608853,55.6777911 C43.6967097,56.4186365 42.696915,56.9836397 41.6173313,57.34125 C40.4837242,57.7288003 39.2937195,57.9245714 38.0960402,57.9205479 C35.6645957,57.9205479 33.8001296,57.2420034 32.5026419,55.8849144 C31.2051543,54.5278253 30.559638,52.5472089 30.5660932,49.9430651 L30.5660932,23.8487671 L43.8249968,23.8487671 L43.8249968,18.8616267 L30.5628656,18.8616267 L30.5628656,9.30482877 L24.6854402,9.30482877 L24.6854402,18.8616267 L16.887604,18.8616267 L16.887604,23.8487671 L24.6854402,23.8487671 L24.6854402,50.2764041 C24.6854402,54.3217808 25.7903489,57.4502055 28.0001661,59.6616781 C30.2099834,61.8731507 33.357951,62.9832021 37.4440688,62.9919413 L37.4440688,62.9919413 Z M7.27263958,62.5775856 L7.27263958,18.8616267 L1.38875903,18.8616267 L1.38875903,62.5775856 L7.27263958,62.5775856 Z M4.36781649,9.30482877 C5.51819428,9.33151915 6.62822168,8.87927893 7.43401864,8.05561644 C8.25546179,7.2476424 8.70648345,6.13461597 8.67986499,4.98113014 C8.68695637,3.89183709 8.23442194,2.85031179 7.43401864,2.11376712 C6.61637504,1.31524783 5.51206347,0.881197465 4.37104407,0.909863014 C3.22128788,0.883102146 2.11162725,1.33402172 1.30484191,2.15583904 C0.507230334,2.91298188 0.0574714341,3.96720691 0.0622231472,5.06851027 C0.0456761441,6.1948048 0.495609592,7.27756254 1.30484191,8.05885274 C2.11184567,8.8803423 3.22135865,9.33120187 4.37104407,9.30482877 L4.36781649,9.30482877 Z" id="Shape"></path>
                </g>
                <g id="MONTAIN" transform="translate(0.000000, 1.000000)">
                    <path d="M130.271722,55.5352083 L106.706316,14.14375 L99.6761244,26.4888542 C99.7145933,26.5534375 99.7338278,26.5921875 99.7338278,26.5921875 L119.955646,61.9160417 L133.903828,61.9160417 L130.271722,55.5352083 Z" id="Path"></path>
                    <polygon id="Path" points="36.651244 61.9128125 101.823971 61.9128125 66.2562679 0.0936458333 30.6853589 61.9128125"></polygon>
                    <polygon id="Path" points="23.748134 20.2113542 27.2039234 14.14375 34.2341148 26.4953125 32.246555 29.9666667 13.9481818 61.9160417 0 61.9160417"></polygon>
                </g>
            </g>
        </g>
    </g>
</svg>